<svg width="500" height="709" viewBox="0 0 500 709" fill="none" xmlns="http://www.w3.org/2000/svg">
<path d="M250 336.419C226.32 336.419 203.61 327.091 186.865 310.488C170.121 293.886 160.714 271.367 160.714 247.887C160.714 224.407 170.121 201.889 186.865 185.286C203.61 168.684 226.32 159.356 250 159.356C273.68 159.356 296.39 168.684 313.135 185.286C329.879 201.889 339.286 224.407 339.286 247.887C339.286 259.513 336.976 271.026 332.489 281.767C328.002 292.508 321.425 302.267 313.135 310.488C304.844 318.709 295.001 325.23 284.168 329.679C273.336 334.129 261.725 336.419 250 336.419ZM250 0C183.696 0 120.107 26.1166 73.2233 72.6045C26.3392 119.092 0 182.144 0 247.887C0 433.803 250 708.25 250 708.25C250 708.25 500 433.803 500 247.887C500 182.144 473.661 119.092 426.777 72.6045C379.893 26.1166 316.304 0 250 0Z" fill="white"/>
</svg>
